<svg xmlns="http://www.w3.org/2000/svg" xmlns:xlink="http://www.w3.org/1999/xlink" width="500" zoomAndPan="magnify" viewBox="0 0 375 374.999991" height="500" preserveAspectRatio="xMidYMid meet" version="1.0"><defs><g/><clipPath id="918095f65e"><path d="M 47.578125 12 L 327 12 L 327 321.644531 L 47.578125 321.644531 Z M 47.578125 12 " clip-rule="nonzero"/></clipPath></defs><g clip-path="url(#918095f65e)"><path fill="#ffffff" d="M 294.253906 171.40625 C 297.855469 175.015625 302.640625 177 307.734375 177 C 307.738281 177 307.742188 177 307.746094 177 C 318.257812 177 326.808594 168.433594 326.808594 157.910156 C 326.808594 152.8125 324.828125 148.015625 321.226562 144.40625 L 296.925781 120.074219 L 296.925781 67.273438 L 301.90625 67.273438 C 304.65625 67.273438 306.886719 65.039062 306.886719 62.285156 L 306.886719 42.335938 C 306.886719 39.582031 304.65625 37.347656 301.90625 37.347656 L 252.097656 37.347656 C 249.347656 37.347656 247.117188 39.582031 247.117188 42.335938 L 247.117188 62.285156 C 247.117188 65.039062 249.347656 67.273438 252.097656 67.273438 L 257.078125 67.273438 L 257.078125 80.171875 L 190.867188 13.871094 C 188.921875 11.921875 185.773438 11.921875 183.824219 13.871094 L 53.46875 144.40625 C 49.867188 148.015625 47.882812 152.808594 47.882812 157.910156 C 47.882812 168.433594 56.4375 177 66.957031 177 C 72.046875 177 76.828125 175.023438 80.417969 171.425781 L 82.75 169.089844 L 82.75 291.71875 L 67.808594 291.71875 C 65.058594 291.71875 62.828125 293.953125 62.828125 296.703125 L 62.828125 316.65625 C 62.828125 319.410156 65.058594 321.644531 67.808594 321.644531 L 306.886719 321.644531 C 309.636719 321.644531 311.867188 319.410156 311.867188 316.65625 L 311.867188 296.703125 C 311.867188 293.953125 309.636719 291.71875 306.886719 291.71875 L 291.945312 291.71875 L 291.945312 169.089844 Z M 257.078125 47.324219 L 296.925781 47.324219 L 296.925781 57.300781 L 257.078125 57.300781 Z M 267.039062 67.273438 L 286.964844 67.273438 L 286.964844 110.097656 L 267.039062 90.148438 Z M 73.375 164.375 C 71.664062 166.085938 69.382812 167.027344 66.949219 167.027344 C 61.929688 167.027344 57.84375 162.933594 57.84375 157.90625 C 57.84375 155.46875 58.792969 153.179688 60.511719 151.460938 L 187.347656 24.449219 L 314.183594 151.460938 C 315.902344 153.179688 316.847656 155.46875 316.847656 157.90625 C 316.847656 162.933594 312.761719 167.023438 307.738281 167.023438 C 307.738281 167.023438 307.734375 167.023438 307.734375 167.023438 C 305.34375 167.023438 302.996094 166.050781 301.296875 164.351562 L 190.867188 53.773438 C 188.921875 51.824219 185.773438 51.824219 183.824219 53.773438 Z M 301.90625 311.667969 L 72.789062 311.667969 L 72.789062 301.691406 L 301.90625 301.691406 Z M 182.367188 216.902344 C 182.367188 214.15625 184.601562 211.914062 187.347656 211.914062 C 190.089844 211.914062 192.328125 214.15625 192.328125 216.902344 C 192.328125 219.652344 190.089844 221.890625 187.347656 221.890625 C 184.601562 221.890625 182.367188 219.652344 182.367188 216.902344 Z M 212.25 291.71875 L 212.25 256.804688 L 223.128906 256.804688 C 225.191406 262.59375 230.667969 266.777344 237.15625 266.777344 C 245.394531 266.777344 252.097656 260.066406 252.097656 251.816406 C 252.097656 243.566406 245.394531 236.851562 237.15625 236.851562 C 230.667969 236.851562 225.191406 241.039062 223.128906 246.828125 L 207.269531 246.828125 C 204.519531 246.828125 202.289062 249.0625 202.289062 251.816406 L 202.289062 291.71875 L 192.328125 291.71875 L 192.328125 230.949219 C 198.109375 228.882812 202.289062 223.398438 202.289062 216.902344 C 202.289062 208.652344 195.585938 201.941406 187.347656 201.941406 C 179.109375 201.941406 172.402344 208.652344 172.402344 216.902344 C 172.402344 223.398438 176.582031 228.882812 182.367188 230.949219 L 182.367188 291.71875 L 172.402344 291.71875 L 172.402344 251.816406 C 172.402344 249.0625 170.171875 246.828125 167.421875 246.828125 L 151.566406 246.828125 C 149.503906 241.039062 144.023438 236.851562 137.539062 236.851562 C 129.300781 236.851562 122.597656 243.566406 122.597656 251.816406 C 122.597656 260.066406 129.300781 266.777344 137.539062 266.777344 C 144.023438 266.777344 149.503906 262.59375 151.566406 256.804688 L 162.441406 256.804688 L 162.441406 291.71875 L 92.710938 291.71875 L 92.710938 191.964844 L 142.519531 191.964844 C 143.839844 191.964844 145.109375 191.441406 146.039062 190.503906 L 161.023438 175.5 C 162.96875 176.4375 165.121094 177 167.421875 177 C 175.660156 177 182.367188 170.289062 182.367188 162.039062 C 182.367188 153.789062 175.660156 147.078125 167.421875 147.078125 C 159.183594 147.078125 152.480469 153.789062 152.480469 162.039062 C 152.480469 164.34375 153.042969 166.496094 153.980469 168.449219 L 140.457031 181.988281 L 92.710938 181.988281 L 92.710938 159.117188 L 187.347656 64.351562 L 274.9375 152.0625 L 234.234375 152.0625 L 220.714844 138.523438 C 221.648438 136.574219 222.210938 134.417969 222.210938 132.113281 C 222.210938 123.863281 215.507812 117.152344 207.269531 117.152344 C 199.03125 117.152344 192.328125 123.863281 192.328125 132.113281 C 192.328125 140.363281 199.03125 147.078125 207.269531 147.078125 C 209.570312 147.078125 211.722656 146.511719 213.671875 145.574219 L 228.652344 160.578125 C 229.582031 161.515625 230.855469 162.039062 232.175781 162.039062 L 281.980469 162.039062 L 281.980469 291.71875 Z M 232.175781 251.816406 C 232.175781 249.066406 234.410156 246.828125 237.15625 246.828125 C 239.898438 246.828125 242.136719 249.066406 242.136719 251.816406 C 242.136719 254.5625 239.898438 256.804688 237.15625 256.804688 C 234.410156 256.804688 232.175781 254.5625 232.175781 251.816406 Z M 142.519531 251.816406 C 142.519531 254.5625 140.28125 256.804688 137.539062 256.804688 C 134.792969 256.804688 132.558594 254.5625 132.558594 251.816406 C 132.558594 249.066406 134.792969 246.828125 137.539062 246.828125 C 140.28125 246.828125 142.519531 249.066406 142.519531 251.816406 Z M 162.441406 162.039062 C 162.441406 159.289062 164.679688 157.050781 167.421875 157.050781 C 170.167969 157.050781 172.402344 159.289062 172.402344 162.039062 C 172.402344 164.789062 170.167969 167.027344 167.421875 167.027344 C 164.679688 167.027344 162.441406 164.789062 162.441406 162.039062 Z M 207.269531 137.101562 C 204.527344 137.101562 202.289062 134.863281 202.289062 132.113281 C 202.289062 129.363281 204.527344 127.125 207.269531 127.125 C 210.015625 127.125 212.25 129.363281 212.25 132.113281 C 212.25 134.863281 210.015625 137.101562 207.269531 137.101562 Z M 207.269531 137.101562 " fill-opacity="1" fill-rule="nonzero"/></g><g fill="#ffffff" fill-opacity="1"><g transform="translate(58.066387, 366.372399)"><g><path d="M 11.21875 -24.234375 C 13.769531 -24.234375 16 -23.722656 17.90625 -22.703125 C 19.820312 -21.691406 21.300781 -20.269531 22.34375 -18.4375 C 23.394531 -16.613281 23.921875 -14.503906 23.921875 -12.109375 C 23.921875 -9.742188 23.394531 -7.640625 22.34375 -5.796875 C 21.300781 -3.953125 19.816406 -2.523438 17.890625 -1.515625 C 15.972656 -0.503906 13.75 0 11.21875 0 L 2.140625 0 L 2.140625 -24.234375 Z M 10.84375 -5.109375 C 13.070312 -5.109375 14.804688 -5.71875 16.046875 -6.9375 C 17.285156 -8.15625 17.90625 -9.878906 17.90625 -12.109375 C 17.90625 -14.347656 17.285156 -16.085938 16.046875 -17.328125 C 14.804688 -18.566406 13.070312 -19.1875 10.84375 -19.1875 L 8.046875 -19.1875 L 8.046875 -5.109375 Z M 10.84375 -5.109375 "/></g></g></g><g fill="#ffffff" fill-opacity="1"><g transform="translate(84.501341, 366.372399)"><g><path d="M 8.046875 -24.234375 L 8.046875 0 L 2.140625 0 L 2.140625 -24.234375 Z M 8.046875 -24.234375 "/></g></g></g><g fill="#ffffff" fill-opacity="1"><g transform="translate(96.027816, 366.372399)"><g><path d="M 18.21875 -16.5625 C 17.78125 -17.375 17.15625 -17.988281 16.34375 -18.40625 C 15.53125 -18.832031 14.570312 -19.046875 13.46875 -19.046875 C 11.550781 -19.046875 10.015625 -18.421875 8.859375 -17.171875 C 7.710938 -15.921875 7.140625 -14.25 7.140625 -12.15625 C 7.140625 -9.914062 7.742188 -8.171875 8.953125 -6.921875 C 10.160156 -5.671875 11.820312 -5.046875 13.9375 -5.046875 C 15.394531 -5.046875 16.625 -5.410156 17.625 -6.140625 C 18.625 -6.878906 19.351562 -7.9375 19.8125 -9.3125 L 12.328125 -9.3125 L 12.328125 -13.671875 L 25.15625 -13.671875 L 25.15625 -8.1875 C 24.71875 -6.707031 23.972656 -5.332031 22.921875 -4.0625 C 21.878906 -2.800781 20.550781 -1.78125 18.9375 -1 C 17.332031 -0.21875 15.519531 0.171875 13.5 0.171875 C 11.101562 0.171875 8.96875 -0.347656 7.09375 -1.390625 C 5.21875 -2.441406 3.753906 -3.898438 2.703125 -5.765625 C 1.660156 -7.628906 1.140625 -9.757812 1.140625 -12.15625 C 1.140625 -14.539062 1.660156 -16.671875 2.703125 -18.546875 C 3.753906 -20.421875 5.210938 -21.878906 7.078125 -22.921875 C 8.941406 -23.972656 11.070312 -24.5 13.46875 -24.5 C 16.363281 -24.5 18.804688 -23.796875 20.796875 -22.390625 C 22.785156 -20.992188 24.101562 -19.050781 24.75 -16.5625 Z M 18.21875 -16.5625 "/></g></g></g><g fill="#ffffff" fill-opacity="1"><g transform="translate(123.670635, 366.372399)"><g><path d="M 8.046875 -24.234375 L 8.046875 0 L 2.140625 0 L 2.140625 -24.234375 Z M 8.046875 -24.234375 "/></g></g></g><g fill="#ffffff" fill-opacity="1"><g transform="translate(135.19711, 366.372399)"><g><path d="M 19.578125 -24.234375 L 19.578125 -19.5 L 13.15625 -19.5 L 13.15625 0 L 7.25 0 L 7.25 -19.5 L 0.828125 -19.5 L 0.828125 -24.234375 Z M 19.578125 -24.234375 "/></g></g></g><g fill="#ffffff" fill-opacity="1"><g transform="translate(156.938663, 366.372399)"><g><path d="M 17.21875 -4.28125 L 8.1875 -4.28125 L 6.734375 0 L 0.546875 0 L 9.3125 -24.234375 L 16.15625 -24.234375 L 24.921875 0 L 18.671875 0 Z M 15.703125 -8.84375 L 12.703125 -17.703125 L 9.734375 -8.84375 Z M 15.703125 -8.84375 "/></g></g></g><g fill="#ffffff" fill-opacity="1"><g transform="translate(183.718718, 366.372399)"><g><path d="M 8.046875 -4.5625 L 15.78125 -4.5625 L 15.78125 0 L 2.140625 0 L 2.140625 -24.234375 L 8.046875 -24.234375 Z M 8.046875 -4.5625 "/></g></g></g><g fill="#ffffff" fill-opacity="1"><g transform="translate(201.526087, 366.372399)"><g/></g></g><g fill="#ffffff" fill-opacity="1"><g transform="translate(210.188206, 366.372399)"><g><path d="M 23.125 -24.234375 L 23.125 0 L 17.21875 0 L 17.21875 -9.96875 L 8.046875 -9.96875 L 8.046875 0 L 2.140625 0 L 2.140625 -24.234375 L 8.046875 -24.234375 L 8.046875 -14.734375 L 17.21875 -14.734375 L 17.21875 -24.234375 Z M 23.125 -24.234375 "/></g></g></g><g fill="#ffffff" fill-opacity="1"><g transform="translate(236.761207, 366.372399)"><g><path d="M 13.59375 0.234375 C 11.320312 0.234375 9.234375 -0.289062 7.328125 -1.34375 C 5.429688 -2.40625 3.925781 -3.882812 2.8125 -5.78125 C 1.695312 -7.675781 1.140625 -9.8125 1.140625 -12.1875 C 1.140625 -14.550781 1.695312 -16.675781 2.8125 -18.5625 C 3.925781 -20.457031 5.429688 -21.929688 7.328125 -22.984375 C 9.234375 -24.046875 11.320312 -24.578125 13.59375 -24.578125 C 15.875 -24.578125 17.960938 -24.046875 19.859375 -22.984375 C 21.765625 -21.929688 23.257812 -20.457031 24.34375 -18.5625 C 25.4375 -16.675781 25.984375 -14.550781 25.984375 -12.1875 C 25.984375 -9.8125 25.429688 -7.675781 24.328125 -5.78125 C 23.222656 -3.882812 21.726562 -2.40625 19.84375 -1.34375 C 17.957031 -0.289062 15.875 0.234375 13.59375 0.234375 Z M 13.59375 -5.140625 C 15.53125 -5.140625 17.078125 -5.785156 18.234375 -7.078125 C 19.398438 -8.367188 19.984375 -10.070312 19.984375 -12.1875 C 19.984375 -14.320312 19.398438 -16.023438 18.234375 -17.296875 C 17.078125 -18.578125 15.53125 -19.21875 13.59375 -19.21875 C 11.644531 -19.21875 10.085938 -18.582031 8.921875 -17.3125 C 7.753906 -16.050781 7.171875 -14.34375 7.171875 -12.1875 C 7.171875 -10.039062 7.753906 -8.328125 8.921875 -7.046875 C 10.085938 -5.773438 11.644531 -5.140625 13.59375 -5.140625 Z M 13.59375 -5.140625 "/></g></g></g><g fill="#ffffff" fill-opacity="1"><g transform="translate(265.232278, 366.372399)"><g><path d="M 29.578125 -24.234375 L 29.578125 0 L 23.671875 0 L 23.671875 -14.53125 L 18.265625 0 L 13.5 0 L 8.046875 -14.5625 L 8.046875 0 L 2.140625 0 L 2.140625 -24.234375 L 9.109375 -24.234375 L 15.90625 -7.453125 L 22.640625 -24.234375 Z M 29.578125 -24.234375 "/></g></g></g><g fill="#ffffff" fill-opacity="1"><g transform="translate(298.258722, 366.372399)"><g><path d="M 8.046875 -19.5 L 8.046875 -14.59375 L 15.953125 -14.59375 L 15.953125 -10.046875 L 8.046875 -10.046875 L 8.046875 -4.734375 L 16.984375 -4.734375 L 16.984375 0 L 2.140625 0 L 2.140625 -24.234375 L 16.984375 -24.234375 L 16.984375 -19.5 Z M 8.046875 -19.5 "/></g></g></g></svg>