<svg xmlns="http://www.w3.org/2000/svg" xmlns:xlink="http://www.w3.org/1999/xlink" width="500" zoomAndPan="magnify" viewBox="0 0 375 374.999991" height="500" preserveAspectRatio="xMidYMid meet" version="1.0"><defs><g/><clipPath id="48407a4b6e"><path d="M 78 31.734375 L 297 31.734375 L 297 250.347656 L 78 250.347656 Z M 78 31.734375 " clip-rule="nonzero"/></clipPath><clipPath id="2ec28ba8ca"><path d="M 164 210 L 179 210 L 179 225.640625 L 164 225.640625 Z M 164 210 " clip-rule="nonzero"/></clipPath><clipPath id="5663097e76"><path d="M 164 110.144531 L 179 110.144531 L 179 126 L 164 126 Z M 164 110.144531 " clip-rule="nonzero"/></clipPath><clipPath id="08d9094a85"><path d="M 196 110.144531 L 211 110.144531 L 211 126 L 196 126 Z M 196 110.144531 " clip-rule="nonzero"/></clipPath><clipPath id="0a640dde5d"><path d="M 129.785156 144 L 145 144 L 145 160 L 129.785156 160 Z M 129.785156 144 " clip-rule="nonzero"/></clipPath><clipPath id="73998857e4"><path d="M 230 144 L 245.277344 144 L 245.277344 160 L 230 160 Z M 230 144 " clip-rule="nonzero"/></clipPath><clipPath id="9c7d6a89bf"><path d="M 230 176 L 245.277344 176 L 245.277344 192 L 230 192 Z M 230 176 " clip-rule="nonzero"/></clipPath></defs><g clip-path="url(#48407a4b6e)"><path fill="#ffffff" d="M 296.097656 139.574219 L 189.039062 32.609375 C 188.167969 31.738281 186.753906 31.738281 185.882812 32.609375 L 127.238281 91.203125 L 127.238281 60.929688 C 127.238281 59.699219 126.238281 58.699219 125.007812 58.699219 C 123.773438 58.699219 122.777344 59.699219 122.777344 60.929688 L 122.777344 95.660156 L 78.820312 139.578125 C 77.949219 140.449219 77.949219 141.863281 78.820312 142.730469 C 79.6875 143.601562 81.101562 143.601562 81.972656 142.730469 L 104.929688 119.796875 L 104.929688 248.121094 C 104.929688 249.351562 105.925781 250.347656 107.160156 250.347656 L 267.75 250.347656 C 268.980469 250.347656 269.980469 249.351562 269.980469 248.121094 L 269.980469 119.792969 L 292.9375 142.726562 C 293.378906 143.164062 293.949219 143.382812 294.519531 143.382812 C 295.089844 143.382812 295.660156 143.164062 296.097656 142.730469 C 296.96875 141.859375 296.96875 140.449219 296.097656 139.574219 Z M 265.523438 245.890625 L 109.394531 245.890625 L 109.394531 115.335938 L 187.457031 37.339844 L 265.523438 115.335938 Z M 265.523438 245.890625 " fill-opacity="1" fill-rule="nonzero"/></g><path fill="#ffffff" d="M 205.535156 198.179688 C 205.5 198.179688 205.464844 198.179688 205.425781 198.179688 L 201.5625 198.179688 L 201.5625 203.148438 C 202.195312 202.976562 202.863281 202.882812 203.550781 202.882812 C 203.550781 202.882812 203.550781 202.882812 203.554688 202.882812 C 204.238281 202.882812 204.902344 202.976562 205.535156 203.148438 L 205.535156 198.179688 " fill-opacity="1" fill-rule="nonzero"/><path fill="#ffffff" d="M 203.554688 202.882812 C 203.554688 202.882812 203.550781 202.882812 203.550781 202.882812 C 202.863281 202.882812 202.195312 202.976562 201.5625 203.148438 C 200.308594 203.496094 199.179688 204.167969 198.289062 205.0625 C 196.945312 206.402344 196.109375 208.273438 196.109375 210.324219 L 200.082031 210.324219 C 200.082031 209.359375 200.464844 208.503906 201.097656 207.871094 C 201.730469 207.238281 202.585938 206.855469 203.550781 206.851562 C 204.511719 206.855469 205.367188 207.238281 206.003906 207.867188 C 206.632812 208.503906 207.015625 209.359375 207.019531 210.324219 C 207.015625 211.285156 206.632812 212.140625 206.003906 212.773438 C 205.367188 213.40625 204.511719 213.789062 203.550781 213.789062 C 202.585938 213.789062 201.730469 213.40625 201.097656 212.773438 C 200.464844 212.140625 200.082031 211.285156 200.082031 210.324219 L 196.109375 210.324219 C 196.109375 212.371094 196.945312 214.242188 198.289062 215.582031 C 199.628906 216.925781 201.5 217.761719 203.546875 217.761719 C 203.546875 217.761719 203.546875 217.761719 203.550781 217.761719 C 205.597656 217.761719 207.472656 216.925781 208.8125 215.582031 C 210.15625 214.242188 210.992188 212.371094 210.988281 210.324219 C 210.992188 208.273438 210.15625 206.402344 208.8125 205.0625 C 207.917969 204.167969 206.792969 203.5 205.535156 203.152344 C 204.902344 202.976562 204.238281 202.882812 203.554688 202.882812 " fill-opacity="1" fill-rule="nonzero"/><path fill="#0096c7" d="M 169.527344 198.179688 L 169.527344 211.027344 C 170.160156 210.851562 170.828125 210.757812 171.511719 210.757812 C 171.515625 210.757812 171.515625 210.757812 171.515625 210.757812 C 172.199219 210.757812 172.867188 210.851562 173.496094 211.027344 L 173.496094 198.179688 L 169.636719 198.179688 C 169.632812 198.179688 169.632812 198.179688 169.632812 198.179688 C 169.597656 198.179688 169.5625 198.179688 169.527344 198.179688 " fill-opacity="1" fill-rule="nonzero"/><g clip-path="url(#2ec28ba8ca)"><path fill="#0096c7" d="M 171.515625 210.757812 C 171.515625 210.757812 171.515625 210.757812 171.511719 210.757812 C 170.824219 210.757812 170.160156 210.851562 169.527344 211.027344 C 168.269531 211.375 167.144531 212.042969 166.25 212.9375 C 164.910156 214.277344 164.070312 216.152344 164.074219 218.199219 L 168.042969 218.199219 C 168.042969 217.234375 168.429688 216.378906 169.058594 215.746094 C 169.695312 215.117188 170.546875 214.730469 171.511719 214.730469 C 172.476562 214.730469 173.332031 215.117188 173.964844 215.746094 C 174.597656 216.378906 174.980469 217.234375 174.980469 218.199219 C 174.980469 219.164062 174.597656 220.019531 173.964844 220.652344 C 173.332031 221.28125 172.476562 221.667969 171.511719 221.667969 C 170.546875 221.667969 169.695312 221.28125 169.058594 220.652344 C 168.429688 220.019531 168.046875 219.164062 168.042969 218.199219 L 164.074219 218.199219 C 164.070312 220.246094 164.910156 222.121094 166.25 223.460938 C 167.589844 224.800781 169.460938 225.640625 171.507812 225.640625 C 171.507812 225.640625 171.511719 225.640625 171.511719 225.640625 C 173.5625 225.640625 175.433594 224.804688 176.773438 223.460938 C 178.117188 222.121094 178.953125 220.246094 178.953125 218.199219 C 178.953125 216.152344 178.117188 214.277344 176.773438 212.9375 C 175.882812 212.042969 174.753906 211.375 173.5 211.027344 C 172.867188 210.851562 172.199219 210.757812 171.515625 210.757812 " fill-opacity="1" fill-rule="nonzero"/></g><path fill="#0096c7" d="M 189.515625 198.179688 L 185.546875 198.179688 L 185.546875 208.605469 C 186.179688 208.429688 186.84375 208.335938 187.53125 208.335938 C 187.53125 208.335938 187.535156 208.335938 187.535156 208.335938 C 188.21875 208.335938 188.886719 208.429688 189.515625 208.605469 L 189.515625 198.179688 " fill-opacity="1" fill-rule="nonzero"/><path fill="#0096c7" d="M 187.535156 208.335938 C 187.535156 208.335938 187.53125 208.335938 187.53125 208.335938 C 186.84375 208.335938 186.179688 208.429688 185.546875 208.605469 C 184.289062 208.953125 183.160156 209.621094 182.269531 210.515625 C 180.925781 211.855469 180.089844 213.726562 180.089844 215.777344 L 184.0625 215.777344 C 184.0625 214.8125 184.445312 213.957031 185.078125 213.324219 C 185.710938 212.695312 186.566406 212.308594 187.53125 212.308594 C 188.496094 212.308594 189.347656 212.695312 189.984375 213.324219 C 190.613281 213.957031 191 214.8125 191 215.777344 C 191 216.742188 190.613281 217.59375 189.984375 218.230469 C 189.347656 218.859375 188.496094 219.246094 187.53125 219.246094 C 186.566406 219.246094 185.710938 218.859375 185.078125 218.230469 C 184.449219 217.59375 184.0625 216.742188 184.0625 215.777344 L 180.089844 215.777344 C 180.089844 217.824219 180.925781 219.699219 182.269531 221.039062 C 183.609375 222.378906 185.480469 223.21875 187.527344 223.21875 C 187.527344 223.21875 187.527344 223.21875 187.53125 223.21875 C 189.578125 223.21875 191.453125 222.378906 192.792969 221.039062 C 194.136719 219.695312 194.972656 217.824219 194.96875 215.777344 C 194.972656 213.726562 194.132812 211.855469 192.792969 210.515625 C 191.898438 209.621094 190.773438 208.953125 189.515625 208.605469 C 188.886719 208.429688 188.21875 208.335938 187.535156 208.335938 " fill-opacity="1" fill-rule="nonzero"/><path fill="#ffffff" d="M 169.527344 124.757812 L 169.527344 137.605469 C 169.5625 137.605469 169.597656 137.605469 169.636719 137.605469 L 173.5 137.605469 L 173.5 124.757812 C 172.863281 124.933594 172.199219 125.027344 171.511719 125.027344 C 171.511719 125.027344 171.511719 125.027344 171.507812 125.027344 C 170.824219 125.027344 170.160156 124.933594 169.527344 124.757812 " fill-opacity="1" fill-rule="nonzero"/><g clip-path="url(#5663097e76)"><path fill="#ffffff" d="M 171.515625 110.144531 C 171.515625 110.144531 171.515625 110.144531 171.511719 110.144531 C 169.464844 110.144531 167.589844 110.980469 166.25 112.324219 C 164.910156 113.664062 164.070312 115.539062 164.074219 117.585938 C 164.070312 119.632812 164.910156 121.507812 166.25 122.847656 C 167.140625 123.742188 168.269531 124.410156 169.527344 124.757812 C 170.160156 124.933594 170.824219 125.027344 171.507812 125.027344 C 171.511719 125.027344 171.511719 125.027344 171.511719 125.027344 C 172.199219 125.027344 172.863281 124.933594 173.5 124.757812 C 174.757812 124.410156 175.882812 123.742188 176.773438 122.847656 C 178.117188 121.507812 178.953125 119.632812 178.953125 117.585938 L 174.980469 117.585938 C 174.980469 118.550781 174.597656 119.40625 173.964844 120.039062 C 173.332031 120.667969 172.476562 121.054688 171.511719 121.054688 C 170.546875 121.054688 169.695312 120.667969 169.058594 120.039062 C 168.429688 119.40625 168.042969 118.550781 168.042969 117.585938 C 168.042969 116.621094 168.429688 115.765625 169.058594 115.132812 C 169.695312 114.503906 170.546875 114.117188 171.511719 114.117188 C 172.476562 114.117188 173.332031 114.503906 173.964844 115.132812 C 174.597656 115.765625 174.980469 116.621094 174.980469 117.585938 L 178.953125 117.585938 C 178.953125 115.539062 178.117188 113.664062 176.773438 112.324219 C 175.433594 110.984375 173.5625 110.144531 171.515625 110.144531 " fill-opacity="1" fill-rule="nonzero"/></g><path fill="#0096c7" d="M 201.5625 124.757812 L 201.5625 137.605469 L 205.425781 137.605469 C 205.429688 137.605469 205.429688 137.605469 205.429688 137.605469 C 205.464844 137.605469 205.5 137.605469 205.535156 137.605469 L 205.535156 124.757812 C 204.902344 124.933594 204.234375 125.027344 203.550781 125.027344 C 203.546875 125.027344 203.546875 125.027344 203.546875 125.027344 C 202.859375 125.027344 202.195312 124.933594 201.5625 124.757812 " fill-opacity="1" fill-rule="nonzero"/><g clip-path="url(#08d9094a85)"><path fill="#0096c7" d="M 203.554688 110.144531 C 203.554688 110.144531 203.550781 110.144531 203.550781 110.144531 C 201.5 110.144531 199.628906 110.980469 198.289062 112.324219 C 196.945312 113.664062 196.109375 115.539062 196.109375 117.585938 C 196.109375 119.632812 196.945312 121.507812 198.289062 122.847656 C 199.179688 123.742188 200.308594 124.410156 201.5625 124.757812 C 202.195312 124.933594 202.859375 125.027344 203.546875 125.027344 C 203.546875 125.027344 203.546875 125.027344 203.550781 125.027344 C 204.234375 125.027344 204.902344 124.933594 205.535156 124.757812 C 206.792969 124.410156 207.917969 123.742188 208.8125 122.847656 C 210.15625 121.507812 210.992188 119.632812 210.988281 117.585938 L 207.019531 117.585938 C 207.015625 118.550781 206.632812 119.40625 206.003906 120.039062 C 205.367188 120.667969 204.511719 121.054688 203.550781 121.054688 C 202.585938 121.054688 201.730469 120.667969 201.097656 120.039062 C 200.464844 119.40625 200.082031 118.550781 200.082031 117.585938 C 200.082031 116.621094 200.464844 115.765625 201.097656 115.132812 C 201.730469 114.503906 202.585938 114.117188 203.550781 114.117188 C 204.511719 114.117188 205.367188 114.503906 206.003906 115.132812 C 206.632812 115.765625 207.015625 116.621094 207.019531 117.585938 L 210.988281 117.585938 C 210.992188 115.539062 210.15625 113.664062 208.8125 112.324219 C 207.472656 110.984375 205.601562 110.144531 203.554688 110.144531 " fill-opacity="1" fill-rule="nonzero"/></g><path fill="#0096c7" d="M 189.515625 132.632812 C 188.882812 132.808594 188.21875 132.902344 187.53125 132.902344 C 187.53125 132.902344 187.527344 132.902344 187.527344 132.902344 C 186.84375 132.902344 186.175781 132.808594 185.546875 132.636719 L 185.546875 137.605469 L 189.515625 137.605469 L 189.515625 132.632812 " fill-opacity="1" fill-rule="nonzero"/><path fill="#0096c7" d="M 187.535156 118.023438 C 187.535156 118.023438 187.53125 118.023438 187.53125 118.023438 C 185.484375 118.023438 183.609375 118.859375 182.269531 120.203125 C 180.925781 121.542969 180.089844 123.414062 180.089844 125.464844 C 180.089844 127.511719 180.925781 129.382812 182.269531 130.722656 C 183.160156 131.617188 184.289062 132.289062 185.546875 132.636719 C 186.175781 132.808594 186.84375 132.902344 187.527344 132.902344 C 187.527344 132.902344 187.527344 132.902344 187.53125 132.902344 C 188.21875 132.902344 188.882812 132.808594 189.515625 132.632812 C 190.773438 132.285156 191.898438 131.617188 192.792969 130.722656 C 194.132812 129.382812 194.972656 127.511719 194.96875 125.460938 L 191 125.460938 C 191 126.425781 190.613281 127.28125 189.984375 127.914062 C 189.347656 128.546875 188.496094 128.929688 187.53125 128.929688 C 186.566406 128.929688 185.710938 128.546875 185.078125 127.914062 C 184.445312 127.28125 184.0625 126.425781 184.0625 125.460938 C 184.0625 124.5 184.445312 123.644531 185.078125 123.011719 C 185.710938 122.378906 186.566406 121.996094 187.53125 121.992188 C 188.496094 121.996094 189.347656 122.378906 189.984375 123.011719 C 190.613281 123.644531 190.996094 124.5 191 125.460938 L 194.96875 125.460938 C 194.972656 123.414062 194.132812 121.542969 192.792969 120.203125 C 191.453125 118.859375 189.582031 118.023438 187.535156 118.023438 " fill-opacity="1" fill-rule="nonzero"/><path fill="#ffffff" d="M 157.242188 181.925781 L 152.273438 181.925781 C 152.449219 182.558594 152.542969 183.226562 152.542969 183.910156 C 152.542969 184.597656 152.449219 185.265625 152.273438 185.898438 L 157.242188 185.898438 C 157.242188 185.859375 157.242188 185.824219 157.242188 185.789062 L 157.242188 181.925781 " fill-opacity="1" fill-rule="nonzero"/><path fill="#ffffff" d="M 145.101562 187.378906 C 144.136719 187.378906 143.28125 186.996094 142.648438 186.363281 C 142.019531 185.730469 141.632812 184.875 141.632812 183.910156 C 141.632812 182.945312 142.019531 182.09375 142.648438 181.457031 C 143.28125 180.828125 144.136719 180.445312 145.101562 180.441406 C 146.066406 180.445312 146.921875 180.828125 147.554688 181.457031 C 148.183594 182.09375 148.570312 182.949219 148.570312 183.910156 C 148.570312 184.875 148.183594 185.730469 147.554688 186.363281 C 146.921875 186.996094 146.066406 187.378906 145.101562 187.378906 M 145.105469 176.472656 C 145.105469 176.472656 145.101562 176.472656 145.101562 176.472656 C 143.054688 176.46875 141.179688 177.308594 139.839844 178.648438 C 138.496094 179.988281 137.660156 181.863281 137.660156 183.910156 C 137.660156 185.960938 138.496094 187.832031 139.839844 189.171875 C 141.179688 190.515625 143.050781 191.351562 145.097656 191.351562 C 145.101562 191.351562 145.101562 191.351562 145.101562 191.351562 C 147.148438 191.351562 149.023438 190.515625 150.363281 189.171875 C 151.257812 188.28125 151.925781 187.152344 152.273438 185.898438 C 152.449219 185.265625 152.542969 184.597656 152.542969 183.910156 C 152.542969 183.226562 152.449219 182.558594 152.273438 181.925781 C 151.925781 180.667969 151.257812 179.542969 150.363281 178.652344 C 149.023438 177.308594 147.152344 176.472656 145.105469 176.472656 " fill-opacity="1" fill-rule="nonzero"/><path fill="#0096c7" d="M 157.242188 149.886719 L 144.394531 149.886719 C 144.570312 150.523438 144.664062 151.1875 144.664062 151.875 C 144.664062 152.558594 144.570312 153.226562 144.394531 153.859375 L 157.242188 153.859375 L 157.242188 149.996094 C 157.242188 149.960938 157.242188 149.925781 157.242188 149.886719 " fill-opacity="1" fill-rule="nonzero"/><g clip-path="url(#0a640dde5d)"><path fill="#0096c7" d="M 137.222656 155.34375 C 136.261719 155.339844 135.40625 154.957031 134.773438 154.328125 C 134.140625 153.691406 133.757812 152.839844 133.757812 151.875 C 133.757812 150.910156 134.140625 150.054688 134.773438 149.421875 C 135.40625 148.789062 136.261719 148.40625 137.222656 148.40625 C 138.1875 148.40625 139.042969 148.789062 139.675781 149.421875 C 140.308594 150.054688 140.691406 150.910156 140.691406 151.875 C 140.691406 152.839844 140.308594 153.691406 139.675781 154.328125 C 139.042969 154.957031 138.1875 155.34375 137.222656 155.34375 M 137.226562 144.433594 C 137.226562 144.433594 137.226562 144.433594 137.222656 144.433594 C 135.175781 144.433594 133.304688 145.269531 131.964844 146.613281 C 130.621094 147.953125 129.785156 149.824219 129.785156 151.875 C 129.785156 153.921875 130.621094 155.796875 131.964844 157.136719 C 133.300781 158.476562 135.175781 159.316406 137.21875 159.316406 C 137.222656 159.316406 137.222656 159.316406 137.222656 159.316406 C 139.273438 159.316406 141.144531 158.480469 142.484375 157.136719 C 143.378906 156.246094 144.046875 155.117188 144.394531 153.859375 C 144.570312 153.226562 144.664062 152.5625 144.664062 151.875 C 144.664062 151.1875 144.570312 150.523438 144.394531 149.890625 C 144.046875 148.632812 143.378906 147.503906 142.484375 146.613281 C 141.144531 145.269531 139.273438 144.433594 137.226562 144.433594 " fill-opacity="1" fill-rule="nonzero"/></g><path fill="#0096c7" d="M 157.242188 165.90625 L 146.820312 165.90625 C 146.992188 166.539062 147.089844 167.207031 147.085938 167.890625 C 147.089844 168.578125 146.996094 169.246094 146.820312 169.878906 L 157.242188 169.878906 L 157.242188 165.90625 " fill-opacity="1" fill-rule="nonzero"/><path fill="#0096c7" d="M 139.648438 171.359375 C 138.683594 171.359375 137.828125 170.976562 137.195312 170.34375 C 136.5625 169.710938 136.179688 168.855469 136.179688 167.890625 C 136.179688 166.929688 136.5625 166.074219 137.195312 165.441406 C 137.828125 164.808594 138.683594 164.425781 139.648438 164.425781 C 140.613281 164.425781 141.464844 164.808594 142.101562 165.441406 C 142.730469 166.074219 143.113281 166.929688 143.117188 167.890625 C 143.113281 168.855469 142.730469 169.710938 142.101562 170.34375 C 141.464844 170.976562 140.613281 171.359375 139.648438 171.359375 M 139.648438 160.453125 C 137.597656 160.453125 135.726562 161.289062 134.386719 162.632812 C 133.042969 163.972656 132.207031 165.84375 132.207031 167.890625 C 132.207031 169.941406 133.042969 171.8125 134.386719 173.152344 C 135.726562 174.496094 137.597656 175.332031 139.644531 175.332031 C 139.644531 175.332031 139.644531 175.332031 139.648438 175.332031 C 141.695312 175.332031 143.566406 174.496094 144.90625 173.152344 C 145.800781 172.261719 146.472656 171.136719 146.820312 169.878906 C 146.992188 169.246094 147.089844 168.578125 147.085938 167.894531 C 147.089844 167.207031 146.996094 166.539062 146.820312 165.90625 C 146.472656 164.648438 145.800781 163.523438 144.90625 162.632812 C 143.570312 161.289062 141.695312 160.453125 139.648438 160.453125 " fill-opacity="1" fill-rule="nonzero"/><path fill="#ffffff" d="M 230.664062 149.886719 L 217.820312 149.886719 C 217.820312 149.925781 217.820312 149.960938 217.820312 149.996094 L 217.820312 153.859375 L 230.664062 153.859375 C 230.492188 153.226562 230.398438 152.558594 230.398438 151.875 C 230.398438 151.1875 230.492188 150.523438 230.664062 149.886719 " fill-opacity="1" fill-rule="nonzero"/><g clip-path="url(#73998857e4)"><path fill="#ffffff" d="M 237.835938 155.34375 C 236.875 155.339844 236.019531 154.957031 235.386719 154.328125 C 234.753906 153.691406 234.371094 152.835938 234.367188 151.875 C 234.371094 150.910156 234.753906 150.054688 235.382812 149.421875 C 236.019531 148.789062 236.875 148.40625 237.835938 148.40625 C 238.800781 148.40625 239.65625 148.789062 240.289062 149.421875 C 240.921875 150.054688 241.304688 150.910156 241.304688 151.875 C 241.304688 152.835938 240.921875 153.691406 240.289062 154.328125 C 239.65625 154.957031 238.800781 155.34375 237.835938 155.34375 M 237.839844 144.433594 C 237.839844 144.433594 237.839844 144.433594 237.835938 144.433594 C 235.789062 144.433594 233.917969 145.269531 232.578125 146.613281 C 231.683594 147.503906 231.015625 148.632812 230.664062 149.886719 C 230.492188 150.523438 230.398438 151.1875 230.398438 151.875 C 230.398438 152.558594 230.492188 153.226562 230.664062 153.859375 C 231.015625 155.117188 231.683594 156.242188 232.578125 157.132812 C 233.914062 158.476562 235.785156 159.3125 237.832031 159.3125 C 237.835938 159.3125 237.835938 159.3125 237.835938 159.3125 C 239.886719 159.316406 241.757812 158.476562 243.097656 157.132812 C 244.441406 155.792969 245.277344 153.921875 245.277344 151.875 C 245.277344 149.824219 244.441406 147.953125 243.097656 146.613281 C 241.757812 145.269531 239.886719 144.433594 237.839844 144.433594 " fill-opacity="1" fill-rule="nonzero"/></g><path fill="#0096c7" d="M 230.664062 181.925781 L 217.820312 181.925781 L 217.820312 185.789062 C 217.820312 185.824219 217.820312 185.859375 217.820312 185.898438 L 230.664062 185.898438 C 230.492188 185.265625 230.398438 184.597656 230.398438 183.910156 C 230.398438 183.226562 230.492188 182.558594 230.664062 181.925781 " fill-opacity="1" fill-rule="nonzero"/><g clip-path="url(#9c7d6a89bf)"><path fill="#0096c7" d="M 237.835938 187.378906 C 236.875 187.378906 236.019531 186.996094 235.386719 186.363281 C 234.753906 185.730469 234.371094 184.875 234.367188 183.910156 C 234.371094 182.945312 234.753906 182.09375 235.382812 181.457031 C 236.019531 180.828125 236.875 180.445312 237.835938 180.441406 C 238.800781 180.445312 239.65625 180.828125 240.289062 181.457031 C 240.921875 182.09375 241.304688 182.949219 241.304688 183.910156 C 241.304688 184.875 240.921875 185.730469 240.289062 186.363281 C 239.65625 186.996094 238.800781 187.378906 237.835938 187.378906 M 237.839844 176.472656 C 237.839844 176.472656 237.839844 176.472656 237.835938 176.472656 C 235.789062 176.46875 233.917969 177.304688 232.578125 178.648438 C 231.683594 179.542969 231.015625 180.667969 230.664062 181.925781 C 230.492188 182.558594 230.398438 183.226562 230.398438 183.910156 C 230.398438 184.597656 230.492188 185.261719 230.664062 185.894531 C 231.011719 187.152344 231.683594 188.28125 232.578125 189.171875 C 233.914062 190.515625 235.789062 191.351562 237.835938 191.351562 C 239.886719 191.351562 241.757812 190.515625 243.097656 189.171875 C 244.441406 187.832031 245.277344 185.957031 245.277344 183.910156 C 245.277344 181.863281 244.441406 179.988281 243.097656 178.648438 C 241.757812 177.308594 239.886719 176.472656 237.839844 176.472656 " fill-opacity="1" fill-rule="nonzero"/></g><path fill="#0096c7" d="M 222.789062 165.90625 L 217.820312 165.90625 L 217.820312 169.878906 L 222.789062 169.878906 C 222.613281 169.246094 222.519531 168.578125 222.519531 167.894531 C 222.519531 167.207031 222.613281 166.539062 222.789062 165.90625 " fill-opacity="1" fill-rule="nonzero"/><path fill="#0096c7" d="M 229.960938 171.359375 C 228.996094 171.359375 228.140625 170.976562 227.507812 170.34375 C 226.875 169.710938 226.492188 168.855469 226.492188 167.890625 C 226.492188 166.929688 226.875 166.074219 227.507812 165.441406 C 228.140625 164.808594 228.996094 164.425781 229.960938 164.425781 C 230.925781 164.425781 231.777344 164.808594 232.414062 165.441406 C 233.042969 166.074219 233.429688 166.929688 233.429688 167.890625 C 233.429688 168.855469 233.042969 169.710938 232.414062 170.34375 C 231.777344 170.976562 230.925781 171.359375 229.960938 171.359375 M 229.960938 160.453125 C 227.910156 160.453125 226.039062 161.289062 224.699219 162.632812 C 223.804688 163.523438 223.136719 164.648438 222.789062 165.90625 C 222.613281 166.539062 222.519531 167.207031 222.519531 167.894531 C 222.519531 168.578125 222.613281 169.246094 222.789062 169.878906 C 223.136719 171.136719 223.804688 172.261719 224.699219 173.152344 C 226.039062 174.496094 227.910156 175.332031 229.957031 175.332031 C 229.957031 175.332031 229.957031 175.332031 229.960938 175.332031 C 232.007812 175.332031 233.882812 174.496094 235.222656 173.152344 C 236.566406 171.8125 237.402344 169.941406 237.402344 167.890625 C 237.402344 165.84375 236.566406 163.972656 235.222656 162.632812 C 233.882812 161.289062 232.011719 160.453125 229.960938 160.453125 " fill-opacity="1" fill-rule="nonzero"/><path fill="#0096c7" d="M 169.527344 137.605469 C 166.152344 137.632812 163.085938 139.015625 160.871094 141.234375 C 158.65625 143.445312 157.269531 146.515625 157.242188 149.886719 L 161.214844 149.886719 L 161.214844 153.859375 L 157.242188 153.859375 L 157.242188 165.90625 L 161.214844 165.90625 L 161.214844 169.878906 L 157.242188 169.878906 L 157.242188 181.925781 L 161.214844 181.925781 L 161.214844 185.898438 L 157.242188 185.898438 C 157.269531 189.269531 158.65625 192.339844 160.871094 194.550781 C 163.082031 196.769531 166.152344 198.152344 169.527344 198.183594 L 169.527344 194.210938 L 173.5 194.210938 L 173.5 198.183594 L 185.546875 198.183594 L 185.546875 194.210938 L 189.515625 194.210938 L 189.515625 198.183594 L 201.5625 198.183594 L 201.5625 194.210938 L 205.535156 194.210938 L 205.535156 198.183594 C 208.910156 198.152344 211.976562 196.769531 214.191406 194.550781 C 216.40625 192.339844 217.792969 189.269531 217.820312 185.898438 L 213.847656 185.898438 L 213.847656 185.789062 C 213.847656 188.121094 212.910156 190.214844 211.382812 191.746094 C 209.851562 193.273438 207.757812 194.210938 205.425781 194.210938 L 169.636719 194.210938 C 167.304688 194.210938 165.210938 193.273438 163.679688 191.746094 C 162.152344 190.214844 161.214844 188.121094 161.214844 185.789062 L 161.214844 149.996094 C 161.214844 147.664062 162.152344 145.574219 163.679688 144.042969 C 165.210938 142.515625 167.304688 141.578125 169.636719 141.574219 L 169.527344 141.574219 L 169.527344 137.605469 M 205.535156 137.605469 L 205.535156 141.574219 L 205.425781 141.574219 C 207.757812 141.574219 209.851562 142.515625 211.382812 144.042969 C 212.910156 145.570312 213.847656 147.664062 213.847656 149.996094 L 213.847656 149.886719 L 217.820312 149.886719 C 217.792969 146.515625 216.40625 143.445312 214.191406 141.234375 C 211.976562 139.015625 208.910156 137.632812 205.535156 137.605469 M 185.546875 137.601562 L 173.5 137.601562 L 173.5 141.574219 L 185.546875 141.574219 L 185.546875 137.601562 M 201.5625 137.601562 L 189.515625 137.601562 L 189.515625 141.574219 L 201.5625 141.574219 L 201.5625 137.601562 " fill-opacity="1" fill-rule="nonzero"/><path fill="#0096c7" d="M 205.535156 194.210938 L 201.5625 194.210938 L 201.5625 198.179688 L 205.425781 198.179688 C 205.464844 198.179688 205.5 198.179688 205.535156 198.179688 L 205.535156 194.210938 " fill-opacity="1" fill-rule="nonzero"/><path fill="#0096c7" d="M 173.5 194.210938 L 169.527344 194.210938 L 169.527344 198.179688 C 169.5625 198.179688 169.597656 198.179688 169.632812 198.179688 C 169.632812 198.179688 169.632812 198.179688 169.636719 198.179688 L 173.5 198.179688 L 173.5 194.210938 " fill-opacity="1" fill-rule="nonzero"/><path fill="#0096c7" d="M 189.515625 194.210938 L 185.546875 194.210938 L 185.546875 198.179688 L 189.515625 198.179688 L 189.515625 194.210938 " fill-opacity="1" fill-rule="nonzero"/><path fill="#0096c7" d="M 173.5 137.601562 L 169.636719 137.601562 C 169.597656 137.601562 169.5625 137.601562 169.527344 137.605469 L 169.527344 141.574219 L 173.5 141.574219 L 173.5 137.601562 " fill-opacity="1" fill-rule="nonzero"/><path fill="#0096c7" d="M 205.429688 137.601562 C 205.429688 137.601562 205.429688 137.601562 205.425781 137.601562 L 201.5625 137.601562 L 201.5625 141.574219 L 205.535156 141.574219 L 205.535156 137.605469 C 205.5 137.605469 205.464844 137.601562 205.429688 137.601562 " fill-opacity="1" fill-rule="nonzero"/><path fill="#0096c7" d="M 189.515625 137.601562 L 185.546875 137.601562 L 185.546875 141.574219 L 189.515625 141.574219 L 189.515625 137.601562 " fill-opacity="1" fill-rule="nonzero"/><path fill="#0096c7" d="M 217.820312 169.878906 L 213.847656 169.878906 L 213.847656 181.925781 L 217.820312 181.925781 L 217.820312 169.878906 M 217.820312 153.859375 L 213.847656 153.859375 L 213.847656 165.90625 L 217.820312 165.90625 L 217.820312 153.859375 " fill-opacity="1" fill-rule="nonzero"/><path fill="#0096c7" d="M 161.214844 181.925781 L 157.242188 181.925781 L 157.242188 185.789062 C 157.242188 185.824219 157.242188 185.859375 157.242188 185.898438 L 161.214844 185.898438 L 161.214844 181.925781 " fill-opacity="1" fill-rule="nonzero"/><path fill="#0096c7" d="M 161.214844 149.886719 L 157.242188 149.886719 C 157.242188 149.925781 157.242188 149.960938 157.242188 149.996094 L 157.242188 153.859375 L 161.214844 153.859375 L 161.214844 149.886719 " fill-opacity="1" fill-rule="nonzero"/><path fill="#0096c7" d="M 161.214844 165.90625 L 157.242188 165.90625 L 157.242188 169.878906 L 161.214844 169.878906 L 161.214844 165.90625 " fill-opacity="1" fill-rule="nonzero"/><path fill="#0096c7" d="M 217.820312 149.886719 L 213.847656 149.886719 L 213.847656 153.859375 L 217.820312 153.859375 L 217.820312 149.996094 C 217.820312 149.960938 217.820312 149.925781 217.820312 149.886719 " fill-opacity="1" fill-rule="nonzero"/><path fill="#0096c7" d="M 217.820312 185.789062 L 213.847656 185.789062 L 213.847656 185.898438 L 217.820312 185.898438 C 217.820312 185.859375 217.820312 185.824219 217.820312 185.789062 M 217.820312 181.925781 L 213.847656 181.925781 L 213.847656 185.789062 L 217.820312 185.789062 L 217.820312 181.925781 " fill-opacity="1" fill-rule="nonzero"/><path fill="#0096c7" d="M 217.820312 165.90625 L 213.847656 165.90625 L 213.847656 169.878906 L 217.820312 169.878906 L 217.820312 165.90625 " fill-opacity="1" fill-rule="nonzero"/><path fill="#ffffff" d="M 199.195312 147.464844 C 199.195312 147.464844 199.195312 147.464844 199.191406 147.464844 L 175.871094 147.464844 C 173.457031 147.464844 171.25 148.449219 169.671875 150.03125 C 168.085938 151.613281 167.101562 153.816406 167.101562 156.230469 L 167.101562 179.554688 C 167.101562 181.96875 168.085938 184.171875 169.671875 185.753906 C 171.25 187.335938 173.453125 188.320312 175.867188 188.320312 C 175.867188 188.320312 175.871094 188.320312 175.871094 188.320312 L 199.191406 188.320312 C 201.609375 188.320312 203.8125 187.335938 205.390625 185.753906 C 206.976562 184.171875 207.960938 181.96875 207.960938 179.554688 L 203.988281 179.554688 C 203.988281 180.882812 203.453125 182.070312 202.582031 182.945312 C 201.710938 183.816406 200.523438 184.347656 199.191406 184.347656 L 175.871094 184.347656 C 174.539062 184.347656 173.355469 183.816406 172.480469 182.945312 C 171.609375 182.070312 171.074219 180.882812 171.074219 179.554688 L 171.074219 156.230469 C 171.074219 154.902344 171.609375 153.714844 172.480469 152.839844 C 173.355469 151.96875 174.539062 151.4375 175.871094 151.4375 L 199.191406 151.4375 C 200.523438 151.4375 201.710938 151.96875 202.582031 152.839844 C 203.453125 153.714844 203.988281 154.902344 203.988281 156.230469 L 203.988281 179.554688 L 207.960938 179.554688 L 207.960938 156.230469 C 207.960938 153.816406 206.976562 151.613281 205.390625 150.03125 C 203.8125 148.449219 201.609375 147.464844 199.195312 147.464844 " fill-opacity="1" fill-rule="nonzero"/><g fill="#ffffff" fill-opacity="1"><g transform="translate(11.697311, 295.379551)"><g><path d="M 13.40625 -28.953125 C 16.457031 -28.953125 19.125 -28.347656 21.40625 -27.140625 C 23.6875 -25.929688 25.453125 -24.234375 26.703125 -22.046875 C 27.960938 -19.859375 28.59375 -17.335938 28.59375 -14.484375 C 28.59375 -11.648438 27.960938 -9.128906 26.703125 -6.921875 C 25.453125 -4.722656 23.675781 -3.019531 21.375 -1.8125 C 19.082031 -0.601562 16.425781 0 13.40625 0 L 2.5625 0 L 2.5625 -28.953125 Z M 12.953125 -6.109375 C 15.617188 -6.109375 17.691406 -6.835938 19.171875 -8.296875 C 20.660156 -9.753906 21.40625 -11.816406 21.40625 -14.484375 C 21.40625 -17.148438 20.660156 -19.222656 19.171875 -20.703125 C 17.691406 -22.191406 15.617188 -22.9375 12.953125 -22.9375 L 9.609375 -22.9375 L 9.609375 -6.109375 Z M 12.953125 -6.109375 "/></g></g></g><g fill="#ffffff" fill-opacity="1"><g transform="translate(47.129038, 295.379551)"><g><path d="M 9.609375 -28.953125 L 9.609375 0 L 2.5625 0 L 2.5625 -28.953125 Z M 9.609375 -28.953125 "/></g></g></g><g fill="#ffffff" fill-opacity="1"><g transform="translate(64.741792, 295.379551)"><g><path d="M 21.78125 -19.796875 C 21.257812 -20.765625 20.507812 -21.5 19.53125 -22 C 18.550781 -22.507812 17.40625 -22.765625 16.09375 -22.765625 C 13.800781 -22.765625 11.96875 -22.015625 10.59375 -20.515625 C 9.21875 -19.023438 8.53125 -17.023438 8.53125 -14.515625 C 8.53125 -11.847656 9.253906 -9.765625 10.703125 -8.265625 C 12.148438 -6.765625 14.140625 -6.015625 16.671875 -6.015625 C 18.398438 -6.015625 19.863281 -6.453125 21.0625 -7.328125 C 22.257812 -8.210938 23.128906 -9.484375 23.671875 -11.140625 L 14.71875 -11.140625 L 14.71875 -16.328125 L 30.078125 -16.328125 L 30.078125 -9.78125 C 29.546875 -8.019531 28.65625 -6.378906 27.40625 -4.859375 C 26.15625 -3.347656 24.566406 -2.125 22.640625 -1.1875 C 20.722656 -0.257812 18.550781 0.203125 16.125 0.203125 C 13.269531 0.203125 10.71875 -0.421875 8.46875 -1.671875 C 6.226562 -2.921875 4.484375 -4.660156 3.234375 -6.890625 C 1.984375 -9.117188 1.359375 -11.660156 1.359375 -14.515625 C 1.359375 -17.378906 1.984375 -19.929688 3.234375 -22.171875 C 4.484375 -24.410156 6.222656 -26.15625 8.453125 -27.40625 C 10.679688 -28.65625 13.226562 -29.28125 16.09375 -29.28125 C 19.550781 -29.28125 22.46875 -28.441406 24.84375 -26.765625 C 27.226562 -25.085938 28.804688 -22.765625 29.578125 -19.796875 Z M 21.78125 -19.796875 "/></g></g></g><g fill="#ffffff" fill-opacity="1"><g transform="translate(101.61718, 295.379551)"><g><path d="M 9.609375 -28.953125 L 9.609375 0 L 2.5625 0 L 2.5625 -28.953125 Z M 9.609375 -28.953125 "/></g></g></g><g fill="#ffffff" fill-opacity="1"><g transform="translate(119.229934, 295.379551)"><g><path d="M 23.390625 -28.953125 L 23.390625 -23.3125 L 15.71875 -23.3125 L 15.71875 0 L 8.65625 0 L 8.65625 -23.3125 L 0.984375 -23.3125 L 0.984375 -28.953125 Z M 23.390625 -28.953125 "/></g></g></g><g fill="#ffffff" fill-opacity="1"><g transform="translate(149.051992, 295.379551)"><g><path d="M 20.578125 -5.109375 L 9.78125 -5.109375 L 8.046875 0 L 0.65625 0 L 11.140625 -28.953125 L 19.3125 -28.953125 L 29.78125 0 L 22.3125 0 Z M 18.765625 -10.5625 L 15.1875 -21.15625 L 11.625 -10.5625 Z M 18.765625 -10.5625 "/></g></g></g><g fill="#ffffff" fill-opacity="1"><g transform="translate(184.896189, 295.379551)"><g><path d="M 9.609375 -5.4375 L 18.84375 -5.4375 L 18.84375 0 L 2.5625 0 L 2.5625 -28.953125 L 9.609375 -28.953125 Z M 9.609375 -5.4375 "/></g></g></g><g fill="#ffffff" fill-opacity="1"><g transform="translate(210.016017, 295.379551)"><g/></g></g><g fill="#ffffff" fill-opacity="1"><g transform="translate(224.205223, 295.379551)"><g><path d="M 27.640625 -28.953125 L 27.640625 0 L 20.578125 0 L 20.578125 -11.921875 L 9.609375 -11.921875 L 9.609375 0 L 2.5625 0 L 2.5625 -28.953125 L 9.609375 -28.953125 L 9.609375 -17.609375 L 20.578125 -17.609375 L 20.578125 -28.953125 Z M 27.640625 -28.953125 "/></g></g></g><g fill="#ffffff" fill-opacity="1"><g transform="translate(259.801944, 295.379551)"><g><path d="M 16.25 0.28125 C 13.53125 0.28125 11.035156 -0.347656 8.765625 -1.609375 C 6.492188 -2.867188 4.691406 -4.632812 3.359375 -6.90625 C 2.023438 -9.175781 1.359375 -11.726562 1.359375 -14.5625 C 1.359375 -17.394531 2.023438 -19.9375 3.359375 -22.1875 C 4.691406 -24.445312 6.492188 -26.207031 8.765625 -27.46875 C 11.035156 -28.738281 13.53125 -29.375 16.25 -29.375 C 18.976562 -29.375 21.472656 -28.738281 23.734375 -27.46875 C 26.003906 -26.207031 27.789062 -24.445312 29.09375 -22.1875 C 30.40625 -19.9375 31.0625 -17.394531 31.0625 -14.5625 C 31.0625 -11.726562 30.398438 -9.175781 29.078125 -6.90625 C 27.753906 -4.632812 25.96875 -2.867188 23.71875 -1.609375 C 21.46875 -0.347656 18.976562 0.28125 16.25 0.28125 Z M 16.25 -6.140625 C 18.5625 -6.140625 20.410156 -6.910156 21.796875 -8.453125 C 23.191406 -9.992188 23.890625 -12.03125 23.890625 -14.5625 C 23.890625 -17.113281 23.191406 -19.148438 21.796875 -20.671875 C 20.410156 -22.203125 18.5625 -22.96875 16.25 -22.96875 C 13.914062 -22.96875 12.050781 -22.210938 10.65625 -20.703125 C 9.269531 -19.191406 8.578125 -17.144531 8.578125 -14.5625 C 8.578125 -12 9.269531 -9.953125 10.65625 -8.421875 C 12.050781 -6.898438 13.914062 -6.140625 16.25 -6.140625 Z M 16.25 -6.140625 "/></g></g></g><g fill="#ffffff" fill-opacity="1"><g transform="translate(297.6673, 295.379551)"><g><path d="M 35.34375 -28.953125 L 35.34375 0 L 28.296875 0 L 28.296875 -17.359375 L 21.828125 0 L 16.125 0 L 9.609375 -17.40625 L 9.609375 0 L 2.5625 0 L 2.5625 -28.953125 L 10.890625 -28.953125 L 19.015625 -8.90625 L 27.0625 -28.953125 Z M 35.34375 -28.953125 "/></g></g></g><g fill="#ffffff" fill-opacity="1"><g transform="translate(340.977345, 295.379551)"><g><path d="M 9.609375 -23.3125 L 9.609375 -17.453125 L 19.0625 -17.453125 L 19.0625 -12 L 9.609375 -12 L 9.609375 -5.65625 L 20.296875 -5.65625 L 20.296875 0 L 2.5625 0 L 2.5625 -28.953125 L 20.296875 -28.953125 L 20.296875 -23.3125 Z M 9.609375 -23.3125 "/></g></g></g></svg>